<svg data-v-423bf9ae="" xmlns="http://www.w3.org/2000/svg" viewBox="0 0 308.9104469900116 60" class="font"><!----><!----><!----><g data-v-423bf9ae="" id="018835a6-bc05-4f67-bd3f-fbdfec023335" fill="black" transform="matrix(4.4776120677666755,0,0,4.4776120677666755,-6.716414698462472,-15.223881934262216)"><path d="M1.50 4.36L1.50 13.52L2.73 13.52L2.73 9.94C3.21 10.16 4.01 10.39 4.95 10.39C6.84 10.39 8.34 9.06 8.34 7.45C8.34 5.56 6.73 4.36 5.15 4.36ZM4.91 9.23C4.09 9.23 3.23 9.02 2.73 8.82L2.73 5.52L4.81 5.52C5.99 5.52 7.08 6.29 7.08 7.45C7.08 8.48 6.29 9.23 4.91 9.23ZM13.00 6.55C11.13 6.55 9.71 7.96 9.71 10.21C9.71 12.29 11.13 13.73 12.89 13.73C13.93 13.73 14.77 13.08 15.24 12.36L15.24 13.52L16.37 13.52L16.37 6.69L15.24 6.69L15.24 7.60C14.66 6.95 13.78 6.55 13.00 6.55ZM13.21 7.64C14.04 7.64 14.66 8.07 15.23 8.78L15.24 10.09C15.26 11.55 14.31 12.63 13.07 12.63C11.74 12.63 10.87 11.54 10.87 10.21C10.87 8.89 11.74 7.64 13.21 7.64ZM20.79 10.39L23.63 13.52L25.05 13.52L21.57 9.65L24.73 6.69L23.21 6.69L19.81 10.02L19.81 3.68L18.69 3.68L18.69 13.52L19.81 13.52L19.81 11.31ZM28.38 10.39L31.21 13.52L32.63 13.52L29.16 9.65L32.32 6.69L30.80 6.69L27.40 10.02L27.40 3.68L26.28 3.68L26.28 13.52L27.40 13.52L27.40 11.31ZM34.96 5.26C35.48 5.26 35.89 4.81 35.89 4.33C35.89 3.84 35.48 3.40 34.96 3.40C34.43 3.40 34.03 3.84 34.03 4.33C34.03 4.81 34.43 5.26 34.96 5.26ZM35.66 6.69L33.46 6.69L33.46 7.74L34.54 7.74L34.54 13.52L35.66 13.52ZM44.04 9.87C44.04 8.00 43.00 6.55 40.89 6.55C38.96 6.55 37.60 8.20 37.60 10.14C37.60 12.09 39.09 13.73 41.17 13.73C42.23 13.73 42.94 13.26 43.22 12.99L43.22 11.85C42.77 12.18 42.15 12.63 41.17 12.63C39.85 12.63 38.95 11.69 38.79 10.54L44.04 10.54ZM38.81 9.58C39.01 8.50 39.77 7.64 40.89 7.64C41.85 7.64 42.79 8.26 42.93 9.58ZM51.60 11.33L52.55 13.52L54.03 13.52L49.75 4.36L49.14 4.36L44.86 13.52L46.33 13.52L47.30 11.33ZM51.09 10.17L47.81 10.17L49.46 6.44ZM58.80 6.55C57.76 6.55 56.93 7.12 56.45 7.85L56.45 6.69L55.33 6.69L55.33 16.80L56.45 16.80L56.45 12.61C57.04 13.26 57.91 13.73 58.69 13.73C60.57 13.73 61.99 12.25 61.99 9.99C61.99 7.92 60.57 6.55 58.80 6.55ZM58.63 7.64C59.95 7.64 60.83 8.67 60.83 9.99C60.83 11.32 59.95 12.63 58.49 12.63C57.65 12.63 57.04 12.14 56.46 11.43L56.45 10.12C56.44 8.65 57.38 7.64 58.63 7.64ZM67.31 6.55C66.27 6.55 65.43 7.12 64.96 7.85L64.96 6.69L63.83 6.69L63.83 16.80L64.96 16.80L64.96 12.61C65.54 13.26 66.42 13.73 67.20 13.73C69.07 13.73 70.49 12.25 70.49 9.99C70.49 7.92 69.07 6.55 67.31 6.55ZM67.13 7.64C68.46 7.64 69.33 8.67 69.33 9.99C69.33 11.32 68.46 12.63 66.99 12.63C66.16 12.63 65.54 12.14 64.97 11.43L64.96 10.12C64.94 8.65 65.88 7.64 67.13 7.64Z"></path></g><!----><!----></svg>